<svg id="visual" viewBox="0 0 960 540" width="960" height="540" xmlns="http://www.w3.org/2000/svg" xmlns:xlink="http://www.w3.org/1999/xlink" version="1.1"><rect x="0" y="0" width="960" height="540" fill="#eff6ff"></rect><defs><linearGradient id="grad1_0" x1="43.8%" y1="0%" x2="100%" y2="100%"><stop offset="14.444444444444446%" stop-color="#1d4ed8" stop-opacity="1"></stop><stop offset="85.55555555555554%" stop-color="#1d4ed8" stop-opacity="1"></stop></linearGradient></defs><defs><linearGradient id="grad1_1" x1="43.8%" y1="0%" x2="100%" y2="100%"><stop offset="14.444444444444446%" stop-color="#1d4ed8" stop-opacity="1"></stop><stop offset="85.55555555555554%" stop-color="#7ca5f4" stop-opacity="1"></stop></linearGradient></defs><defs><linearGradient id="grad1_2" x1="43.8%" y1="0%" x2="100%" y2="100%"><stop offset="14.444444444444446%" stop-color="#eff6ff" stop-opacity="1"></stop><stop offset="85.55555555555554%" stop-color="#7ca5f4" stop-opacity="1"></stop></linearGradient></defs><defs><linearGradient id="grad2_0" x1="0%" y1="0%" x2="56.3%" y2="100%"><stop offset="14.444444444444446%" stop-color="#1d4ed8" stop-opacity="1"></stop><stop offset="85.55555555555554%" stop-color="#1d4ed8" stop-opacity="1"></stop></linearGradient></defs><defs><linearGradient id="grad2_1" x1="0%" y1="0%" x2="56.3%" y2="100%"><stop offset="14.444444444444446%" stop-color="#7ca5f4" stop-opacity="1"></stop><stop offset="85.55555555555554%" stop-color="#1d4ed8" stop-opacity="1"></stop></linearGradient></defs><defs><linearGradient id="grad2_2" x1="0%" y1="0%" x2="56.3%" y2="100%"><stop offset="14.444444444444446%" stop-color="#7ca5f4" stop-opacity="1"></stop><stop offset="85.55555555555554%" stop-color="#eff6ff" stop-opacity="1"></stop></linearGradient></defs><g transform="translate(960, 0)"><path d="M0 216C-25.1 205.3 -50.2 194.5 -76.9 185.7C-103.6 176.9 -132 169.9 -152.7 152.7C-173.5 135.6 -186.6 108.3 -195.9 81.1C-205.1 54 -210.6 27 -216 0L0 0Z" fill="#b2cefa"></path><path d="M0 144C-16.7 136.8 -33.5 129.7 -51.3 123.8C-69.1 117.9 -88 113.3 -101.8 101.8C-115.6 90.4 -124.4 72.2 -130.6 54.1C-136.8 36 -140.4 18 -144 0L0 0Z" fill="#4b7be9"></path><path d="M0 72C-8.4 68.4 -16.7 64.8 -25.6 61.9C-34.5 59 -44 56.6 -50.9 50.9C-57.8 45.2 -62.2 36.1 -65.3 27C-68.4 18 -70.2 9 -72 0L0 0Z" fill="#1d4ed8"></path></g><g transform="translate(0, 540)"><path d="M0 -216C28.1 -213.2 56.1 -210.4 82.7 -199.6C109.2 -188.7 134.2 -169.9 146.4 -146.4C158.5 -122.8 157.8 -94.5 167.2 -69.3C176.7 -44.1 196.3 -22 216 0L0 0Z" fill="#b2cefa"></path><path d="M0 -144C18.7 -142.1 37.4 -140.2 55.1 -133C72.8 -125.8 89.5 -113.3 97.6 -97.6C105.7 -81.9 105.2 -63 111.5 -46.2C117.8 -29.4 130.9 -14.7 144 0L0 0Z" fill="#4b7be9"></path><path d="M0 -72C9.4 -71.1 18.7 -70.1 27.6 -66.5C36.4 -62.9 44.7 -56.6 48.8 -48.8C52.8 -40.9 52.6 -31.5 55.7 -23.1C58.9 -14.7 65.4 -7.3 72 0L0 0Z" fill="#1d4ed8"></path></g></svg>